<svg class="icon" style="width: 50px;height: 50px;vertical-align: middle;fill: currentColor;overflow: hidden;" viewBox="0 0 1024 1024" version="1.1" xmlns="http://www.w3.org/2000/svg" p-id="49034"><path d="M152.96256 609.72544c-23.86432-0.00256-41.90208-15.0144-64.99072-40.94464-25.64096-28.8-58.35776-111.49056-46.62784-145.34912 2.77248-8.00768 7.61856-12.36992 15.24992-13.72928 5.57312-0.99584 13.15072-1.52064 21.91872-1.52064 51.75552 0 133.13536 16.99584 152.02048 54.77632 9.536 18.91584 5.21728 57.83552-10.25792 92.5568-12.19584 27.36384-28.86656 46.25408-44.59776 50.52928-8.43008 2.48832-15.81568 3.68128-22.7072 3.68128h-0.00768z" fill="#C73966" p-id="49035"></path><path d="M78.51008 414.58176c48.67072 0 128.82432 16.28416 146.31424 51.2768 8.59136 17.04704 4.1216 54.46912-10.40128 87.0528-11.42016 25.62816-26.5344 43.18208-40.43008 46.95808l-0.13312 0.0384-0.13312 0.04096c-7.70048 2.27328-14.49472 3.3792-20.76672 3.3792-18.944 0-34.7008-10.15552-60.2112-38.80192-24.13056-27.10272-56.25344-107.56096-45.36064-138.99776 2.49344-7.19616 6.43584-8.82944 10.32704-9.5232 5.21216-0.93184 12.40064-1.42336 20.79488-1.42336m0-12.8c-9.20576 0-17.10592 0.56064-23.04 1.61792-52.16256 9.29536-3.49696 134.57152 27.72224 169.63584 24.80384 27.85536 43.98592 43.08992 69.77024 43.08992 7.47776 0 15.50592-1.28 24.39168-3.904 44.52352-12.10112 78.656-112.93696 58.90304-152.12288-21.04576-42.10432-108.23424-58.3168-157.7472-58.3168z" fill="" p-id="49036"></path><path d="M315.53024 940.74112c-23.53152 0-44.97664-2.39104-63.73376-7.10144-54.96064-13.79328-96.81664-50.1248-109.24032-94.81984-11.57888-41.65888 3.43552-86.11584 42.28352-125.17376l4.59776-4.62336-4.70528-4.51072c-33.00352-31.63136-48.37376-83.56096-48.37376-163.4176 0-128.79616 35.45856-246.5408 99.84-331.54048 67.17696-88.68864 159.88224-136 268.25728-136.9728l18.52928 27.66848 3.26912 0.1152c108.54144 3.81184 200.9216 49.07776 267.15136 130.90304 65.35936 80.75008 99.90656 189.8368 99.90656 315.46624 0 69.9008-16.72192 119.97696-51.12576 153.09312l-5.9776 5.75232 7.08352 4.32128c65.83552 40.1536 101.78048 83.52 101.21216 122.10688-0.36864 24.98304-16.65536 47.36768-47.10144 64.7296-28.41344 16.19968-59.968 24.07424-96.45824 24.07424h-0.01024c-59.89888 0-134.13632-21.50144-233.63328-67.66336l-4.00128-1.85856-3.15904 3.08224c-52.11392 50.8544-152.69888 86.36928-244.61056 86.36928z" fill="#C73966" p-id="49037"></path><path d="M501.06624 79.02976l14.77376 22.06208 3.64288 5.44 6.54336 0.2304c106.6368 3.74528 197.376 48.192 262.40256 128.53248 31.5264 38.9504 56.00768 85.24544 72.7552 137.6 17.07264 53.36064 25.728 111.84896 25.728 173.83936 0 68.06784-16.08192 116.63616-49.1648 148.48l-11.9552 11.50976 14.16704 8.64c62.89664 38.3616 98.67008 80.8448 98.14528 116.54912-0.41984 28.544-24.0896 47.98464-43.87328 59.264-27.42272 15.63392-57.94048 23.23456-93.29664 23.23456-58.93376 0-132.31616-21.30944-230.9376-67.06688l-8.00768-3.71712-6.32064 6.16448c-51.01312 49.7792-149.76 84.544-240.13824 84.544-23.00672 0-43.92704-2.32448-62.17728-6.90944-52.73088-13.23264-92.82304-47.84384-104.63232-90.32704-10.93632-39.3472 3.50208-81.5872 40.6528-118.94272l9.19552-9.24416-9.41312-9.02144c-31.65952-30.34624-46.40256-80.80128-46.40256-158.7968 0-127.4112 34.9952-243.78112 98.54464-327.67744 32.192-42.50112 70.7584-75.61216 114.62656-98.41408 44.09856-22.91968 92.89728-35.01056 145.14176-35.97312m6.78912-12.86144c-234.16576 0-377.90464 213.75232-377.90464 474.92864 0 85.49376 17.9712 137.00864 50.34752 168.0384-94.96576 95.48288-36.9792 203.88096 69.93664 230.71232 19.60704 4.92544 41.8048 7.296 65.2928 7.296 87.13216 0 192.10496-32.58624 249.07776-88.18176 93.74464 43.4944 171.16928 68.25728 236.32384 68.25728 36.9024 0 69.8624-7.93856 99.63776-24.91392 81.01376-46.20032 65.09568-125.25568-53.94688-197.8624 32.59904-31.38048 53.08672-80.67072 53.08672-157.70368 0-256.27904-145.80736-444.77696-373.2352-452.76416l-18.61632-27.80672z" fill="" p-id="49038"></path><path d="M863.44448 637.82912c-5.46048 0-10.33472-0.82944-14.48704-2.46784-36.14976-13.3376-44.01664-36.16256-48.03328-82.29632-2.81344-32.40704 15.1808-108.51584 41.80992-137.55904 6.64576-7.24736 13.21216-10.92096 19.52-10.92096 2.816 0 5.71904 0.73984 8.62976 2.19904 31.58272 15.81824 116.84864 94.98112 107.584 146.67776-6.23616 35.49696-72.8832 84.36736-115.02336 84.36736-0.00256 0 0.00256 0 0 0z" fill="#C73966" p-id="49039"></path><path d="M862.25408 410.98496c1.83552 0 3.72224 0.49664 5.76512 1.52064 15.13472 7.58016 44.11904 30.98112 68.02432 59.40992 26.47552 31.48544 39.6416 60.79744 36.11648 80.4608-2.52672 14.37696-18.65216 34.41664-41.08288 51.05152-23.29088 17.27232-49.20832 28.00128-67.63776 28.00128-4.64896 0-8.73472-0.68096-12.13696-2.01984l-0.13312-0.05376-0.13312-0.04864c-30.0544-11.08992-39.45728-27.5968-43.7376-76.79744-2.72128-31.32672 14.55104-104.76288 40.15104-132.68224 3.70176-4.032 9.27488-8.84224 14.80448-8.84224m0-12.8c-41.536 0-71.42912 112.52992-67.70432 155.43552 4.17024 47.93088 13.38368 73.42848 52.06016 87.69792 5.05856 1.99424 10.73664 2.91328 16.83456 2.91328 45.62432 0 114.62144-51.5072 121.32608-89.6384 9.84576-54.94528-76.64384-136.31488-111.01696-153.53088-3.9168-1.96352-7.75936-2.87744-11.49952-2.87744z" fill="" p-id="49040"></path><path d="M505.8688 659.04128c-26.11456 0-48.17408-37.39392-48.17408-81.65888 0-44.26752 22.06208-81.66656 48.17408-81.66656 26.112 0 48.17152 37.39904 48.17152 81.66656 0.00256 44.2624-22.05696 81.65888-48.17152 81.65888z" fill="#FFFFFF" p-id="49041"></path><path d="M505.8688 502.11328c13.46816 0 23.13984 12.3648 27.70688 19.73504 9.07008 14.63552 14.06464 34.3552 14.06464 55.52896 0 21.17376-4.99456 40.89344-14.06464 55.5264-4.56448 7.36768-14.24128 19.73248-27.70688 19.73248-13.46816 0-23.1424-12.3648-27.70944-19.73504-9.07008-14.63296-14.06464-34.35264-14.06464-55.52384 0-21.17376 4.99456-40.896 14.06464-55.52896 4.56704-7.37024 14.24128-19.73504 27.70944-19.73504m0-12.8c-30.14144 0-54.57408 39.42656-54.57408 88.06656 0 48.63744 24.43264 88.05888 54.57408 88.05888 30.13888 0 54.57152-39.42144 54.57152-88.05888 0.00256-48.64-24.43008-88.06656-54.57152-88.06656z" fill="" p-id="49042"></path><path d="M449.0112 344.75008c26.0992 30.34368 22.656 76.09088-7.67744 102.18496-30.34624 26.09408-76.09344 22.656-102.18752-7.70048-26.0992-30.33088-22.65344-76.08064 7.69024-102.17984 30.33344-26.08384 76.08064-22.6432 102.17472 7.69536z" fill="#FFFFFF" p-id="49043"></path><path d="M378.71872 321.18528a72.6784 72.6784 0 0 0-31.89248 15.86944c-30.28992 26.06592-33.73568 71.8848-7.68512 102.17472 14.26944 16.6144 34.99264 25.76896 56.896 25.21088a72.64 72.64 0 0 0 45.2992-17.50016c30.27968-26.05056 33.73056-71.90016 7.66976-102.19008a72.41472 72.41472 0 0 0-70.28736-23.5648z m-45.0816 58.97984a10.91072 10.91072 0 1 1 14.23872 16.53504 10.89792 10.89792 0 0 1-15.38816-1.15968 10.88256 10.88256 0 0 1 1.14944-15.37536z m98.31168 55.872a58.15296 58.15296 0 0 1-36.29312 14.02112 57.8304 57.8304 0 0 1-45.58848-20.19072 58.14272 58.14272 0 0 1-6.48704-9.29024c6.27456 4.02432 13.4656 6.14912 20.73344 5.95968a36.736 36.736 0 0 0 23.02208-8.90624c15.43168-13.27104 17.18016-36.53376 3.904-51.97056-9.1136-10.6112-22.96064-14.73024-35.74272-11.98592-2.40128 0.51968-4.73344 1.44128-7.03232 2.46528a57.32352 57.32352 0 0 1 7.74912-8.16384 57.8432 57.8432 0 0 1 25.54624-12.7232 58.03776 58.03776 0 0 1 56.33792 18.88768c20.8896 24.27648 18.12224 61.02528-6.14912 81.89696z" fill="#241D1A" p-id="49044"></path><path d="M675.84768 343.72352c26.09408 30.34112 22.656 76.08832-7.67488 102.1824-30.34624 26.0992-76.096 22.656-102.18752-7.70048-26.10176-30.336-22.65088-76.08064 7.6928-102.17472 30.32832-26.08896 76.07552-22.64576 102.1696 7.6928z" fill="#FFFFFF" p-id="49045"></path><path d="M605.55776 320.1536a72.70912 72.70912 0 0 0-31.89248 15.87712c-30.28736 26.0608-33.7408 71.8848-7.68512 102.17472 14.26176 16.6144 34.9952 25.76384 56.896 25.20576a72.6272 72.6272 0 0 0 45.29664-17.49504c30.27712-26.05568 33.728-71.90528 7.6672-102.19264a72.41216 72.41216 0 0 0-70.28224-23.56992z m-45.0816 58.9824a10.9056 10.9056 0 0 1 15.39584 1.14944 10.89792 10.89792 0 0 1-1.15712 15.38816 10.89792 10.89792 0 0 1-15.38816-1.15712 10.89024 10.89024 0 0 1 1.14944-15.38048z m98.31168 55.86944a58.16832 58.16832 0 0 1-36.288 14.02112 57.86624 57.86624 0 0 1-45.5936-20.19072 58.56768 58.56768 0 0 1-6.49216-9.28512c6.27456 4.02432 13.46816 6.13888 20.73856 5.95456a36.81024 36.81024 0 0 0 23.02464-8.90112c15.42656-13.27616 17.18016-36.53888 3.89888-51.97824-9.10848-10.60352-22.9632-14.72768-35.74272-11.98336-2.40128 0.5248-4.73344 1.44128-7.03232 2.46784a57.32608 57.32608 0 0 1 7.74656-8.16384 57.87136 57.87136 0 0 1 25.54624-12.7232 58.04544 58.04544 0 0 1 56.34048 18.88256c20.8896 24.2816 18.1248 61.0304-6.14656 81.89952z" fill="#241D1A" p-id="49046"></path></svg>